<?xml version="1.0" encoding="UTF-8" standalone="no"?>
<!DOCTYPE svg PUBLIC "-//W3C//DTD SVG 1.1//EN" "http://www.w3.org/Graphics/SVG/1.1/DTD/svg11.dtd">
<svg width="85px" height="35px" viewBox="0 0 85 35" version="1.1" xmlns="http://www.w3.org/2000/svg" xmlns:xlink="http://www.w3.org/1999/xlink" xml:space="preserve" xmlns:serif="http://www.serif.com/" style="fill-rule:evenodd;clip-rule:evenodd;stroke-linecap:square;stroke-miterlimit:1.5;">
    <g transform="matrix(0.992656,0,0,0.984167,0.297595,0.35079)">
        <rect x="0" y="0" width="85" height="35" style="fill:#f3a7aa;stroke:#4d4f4d;stroke-width:1.01px;"/>
    </g>
    <g transform="matrix(1,0,0,1,5.12354,15.6646)">
        <g transform="matrix(16,0,0,16,4.67769,7.63349)">
            <path d="M0.234,-0.057L0.237,-0.057C0.257,-0.056 0.272,-0.055 0.282,-0.055C0.341,-0.055 0.383,-0.066 0.41,-0.087C0.437,-0.108 0.45,-0.143 0.45,-0.19C0.45,-0.233 0.438,-0.264 0.413,-0.285C0.388,-0.306 0.35,-0.317 0.3,-0.317C0.285,-0.317 0.273,-0.317 0.263,-0.316C0.253,-0.316 0.244,-0.316 0.234,-0.315L0.234,-0.057ZM0.234,-0.373C0.237,-0.373 0.24,-0.372 0.244,-0.372C0.248,-0.372 0.254,-0.372 0.261,-0.372C0.313,-0.372 0.352,-0.383 0.376,-0.404C0.401,-0.425 0.413,-0.457 0.413,-0.502C0.413,-0.541 0.402,-0.57 0.379,-0.589C0.356,-0.608 0.321,-0.617 0.274,-0.617C0.266,-0.617 0.254,-0.617 0.237,-0.615L0.234,-0.615L0.234,-0.373ZM0.029,-0.671L0.329,-0.671C0.403,-0.671 0.458,-0.658 0.495,-0.632C0.532,-0.605 0.551,-0.566 0.551,-0.514C0.551,-0.475 0.539,-0.442 0.515,-0.415C0.491,-0.389 0.455,-0.369 0.408,-0.357C0.465,-0.356 0.51,-0.341 0.542,-0.313C0.574,-0.285 0.59,-0.246 0.59,-0.196C0.59,-0.133 0.568,-0.084 0.525,-0.051C0.482,-0.017 0.419,0 0.338,0L0.029,0L0.029,-0.049L0.088,-0.054L0.104,-0.07L0.104,-0.603L0.088,-0.617L0.029,-0.622L0.029,-0.671Z" style="fill:#444;fill-rule:nonzero;"/>
        </g>
        <g transform="matrix(16,0,0,16,14.7246,7.63349)">
            <path d="M0.029,0L0.029,-0.045L0.082,-0.049L0.096,-0.064L0.096,-0.409L0.024,-0.409L0.024,-0.449L0.171,-0.496L0.219,-0.496L0.215,-0.394C0.232,-0.412 0.25,-0.43 0.27,-0.447C0.29,-0.464 0.31,-0.48 0.332,-0.496C0.337,-0.497 0.342,-0.497 0.345,-0.498C0.348,-0.498 0.351,-0.498 0.354,-0.498C0.365,-0.498 0.376,-0.497 0.386,-0.494C0.397,-0.491 0.409,-0.487 0.42,-0.481L0.407,-0.343L0.355,-0.343C0.347,-0.355 0.338,-0.364 0.328,-0.37C0.317,-0.376 0.305,-0.379 0.29,-0.379C0.282,-0.379 0.271,-0.377 0.26,-0.372C0.248,-0.367 0.234,-0.36 0.219,-0.351L0.219,-0.064L0.234,-0.049L0.305,-0.045L0.305,0L0.029,0Z" style="fill:#444;fill-rule:nonzero;"/>
        </g>
        <g transform="matrix(16,0,0,16,21.4589,7.63349)">
            <path d="M0.361,-0.308L0.361,-0.319C0.361,-0.36 0.353,-0.391 0.338,-0.412C0.323,-0.434 0.302,-0.445 0.274,-0.445C0.243,-0.445 0.219,-0.433 0.2,-0.408C0.182,-0.384 0.172,-0.351 0.17,-0.308L0.361,-0.308ZM0.492,-0.124L0.492,-0.05C0.458,-0.03 0.424,-0.016 0.389,-0.006C0.354,0.004 0.319,0.009 0.284,0.009C0.21,0.009 0.15,-0.014 0.105,-0.06C0.06,-0.106 0.037,-0.167 0.037,-0.242C0.037,-0.318 0.06,-0.38 0.106,-0.428C0.152,-0.476 0.212,-0.5 0.284,-0.5C0.35,-0.5 0.401,-0.48 0.438,-0.441C0.474,-0.401 0.492,-0.346 0.492,-0.274L0.492,-0.255L0.165,-0.255L0.165,-0.252C0.165,-0.195 0.179,-0.15 0.208,-0.118C0.237,-0.085 0.276,-0.069 0.326,-0.069C0.353,-0.069 0.379,-0.073 0.407,-0.083C0.434,-0.092 0.463,-0.105 0.492,-0.124Z" style="fill:#444;fill-rule:nonzero;"/>
        </g>
        <g transform="matrix(16,0,0,16,29.8418,7.63349)">
            <path d="M0.343,-0.098L0.343,-0.261C0.277,-0.247 0.232,-0.231 0.208,-0.213C0.184,-0.196 0.172,-0.173 0.172,-0.143C0.172,-0.12 0.179,-0.102 0.192,-0.088C0.205,-0.075 0.223,-0.068 0.246,-0.068C0.259,-0.068 0.273,-0.07 0.289,-0.075C0.305,-0.08 0.323,-0.088 0.343,-0.098ZM0.343,-0.057C0.309,-0.034 0.278,-0.017 0.25,-0.007C0.223,0.004 0.196,0.009 0.171,0.009C0.132,0.009 0.101,-0.003 0.077,-0.028C0.052,-0.052 0.04,-0.083 0.04,-0.121C0.04,-0.168 0.058,-0.204 0.094,-0.229C0.13,-0.255 0.213,-0.282 0.344,-0.312L0.344,-0.342C0.344,-0.378 0.337,-0.404 0.321,-0.421C0.306,-0.438 0.282,-0.446 0.249,-0.446C0.242,-0.446 0.234,-0.445 0.227,-0.444C0.219,-0.443 0.21,-0.442 0.201,-0.44L0.201,-0.346L0.109,-0.346C0.093,-0.346 0.081,-0.349 0.074,-0.355C0.067,-0.361 0.063,-0.37 0.063,-0.383C0.063,-0.414 0.084,-0.441 0.126,-0.464C0.168,-0.487 0.22,-0.499 0.281,-0.499C0.349,-0.499 0.398,-0.486 0.426,-0.459C0.454,-0.433 0.468,-0.387 0.468,-0.322L0.468,-0.063L0.481,-0.049L0.534,-0.044L0.534,0L0.356,0L0.343,-0.057Z" style="fill:#444;fill-rule:nonzero;"/>
        </g>
        <g transform="matrix(16,0,0,16,38.5449,7.63349)">
            <path d="M0.025,0L0.025,-0.044L0.077,-0.049L0.091,-0.064L0.091,-0.653L0.018,-0.653L0.018,-0.692L0.172,-0.739L0.214,-0.739L0.214,-0.259L0.236,-0.259L0.379,-0.426L0.372,-0.437L0.328,-0.442L0.328,-0.486L0.532,-0.486L0.532,-0.442L0.467,-0.434L0.353,-0.307L0.512,-0.049L0.571,-0.044L0.571,0L0.379,0L0.379,-0.039L0.263,-0.226L0.214,-0.226L0.214,-0.062L0.227,-0.048L0.277,-0.044L0.277,0L0.025,0Z" style="fill:#444;fill-rule:nonzero;"/>
        </g>
        <g transform="matrix(16,0,0,16,47.3964,7.63349)">
            <path d="M0.361,-0.308L0.361,-0.319C0.361,-0.36 0.353,-0.391 0.338,-0.412C0.323,-0.434 0.302,-0.445 0.274,-0.445C0.243,-0.445 0.219,-0.433 0.2,-0.408C0.182,-0.384 0.172,-0.351 0.17,-0.308L0.361,-0.308ZM0.492,-0.124L0.492,-0.05C0.458,-0.03 0.424,-0.016 0.389,-0.006C0.354,0.004 0.319,0.009 0.284,0.009C0.21,0.009 0.15,-0.014 0.105,-0.06C0.06,-0.106 0.037,-0.167 0.037,-0.242C0.037,-0.318 0.06,-0.38 0.106,-0.428C0.152,-0.476 0.212,-0.5 0.284,-0.5C0.35,-0.5 0.401,-0.48 0.438,-0.441C0.474,-0.401 0.492,-0.346 0.492,-0.274L0.492,-0.255L0.165,-0.255L0.165,-0.252C0.165,-0.195 0.179,-0.15 0.208,-0.118C0.237,-0.085 0.276,-0.069 0.326,-0.069C0.353,-0.069 0.379,-0.073 0.407,-0.083C0.434,-0.092 0.463,-0.105 0.492,-0.124Z" style="fill:#444;fill-rule:nonzero;"/>
        </g>
        <g transform="matrix(16,0,0,16,55.7793,7.63349)">
            <path d="M0.029,0L0.029,-0.045L0.082,-0.049L0.096,-0.064L0.096,-0.409L0.024,-0.409L0.024,-0.449L0.171,-0.496L0.219,-0.496L0.215,-0.394C0.232,-0.412 0.25,-0.43 0.27,-0.447C0.29,-0.464 0.31,-0.48 0.332,-0.496C0.337,-0.497 0.342,-0.497 0.345,-0.498C0.348,-0.498 0.351,-0.498 0.354,-0.498C0.365,-0.498 0.376,-0.497 0.386,-0.494C0.397,-0.491 0.409,-0.487 0.42,-0.481L0.407,-0.343L0.355,-0.343C0.347,-0.355 0.338,-0.364 0.328,-0.37C0.317,-0.376 0.305,-0.379 0.29,-0.379C0.282,-0.379 0.271,-0.377 0.26,-0.372C0.248,-0.367 0.234,-0.36 0.219,-0.351L0.219,-0.064L0.234,-0.049L0.305,-0.045L0.305,0L0.029,0Z" style="fill:#444;fill-rule:nonzero;"/>
        </g>
        <g transform="matrix(16,0,0,16,62.5136,7.63349)">
            <path d="M0.395,-0.475L0.395,-0.342L0.335,-0.342L0.325,-0.417L0.313,-0.428C0.302,-0.433 0.291,-0.437 0.28,-0.44C0.269,-0.443 0.258,-0.444 0.247,-0.444C0.223,-0.444 0.204,-0.439 0.191,-0.428C0.178,-0.417 0.171,-0.403 0.171,-0.384C0.171,-0.368 0.176,-0.355 0.187,-0.343C0.197,-0.332 0.223,-0.316 0.264,-0.296L0.266,-0.295C0.362,-0.249 0.41,-0.202 0.41,-0.154C0.41,-0.103 0.392,-0.062 0.356,-0.033C0.319,-0.003 0.27,0.011 0.206,0.011C0.181,0.011 0.155,0.009 0.128,0.005C0.1,0.001 0.071,-0.006 0.041,-0.014L0.041,-0.162L0.101,-0.162L0.113,-0.076L0.123,-0.065C0.136,-0.058 0.15,-0.053 0.164,-0.049C0.178,-0.046 0.192,-0.044 0.207,-0.044C0.233,-0.044 0.254,-0.05 0.269,-0.063C0.284,-0.076 0.292,-0.094 0.292,-0.116C0.292,-0.145 0.263,-0.172 0.206,-0.198C0.186,-0.207 0.171,-0.214 0.16,-0.219C0.119,-0.24 0.09,-0.26 0.073,-0.28C0.056,-0.3 0.048,-0.324 0.048,-0.351C0.048,-0.396 0.066,-0.432 0.101,-0.459C0.137,-0.486 0.185,-0.5 0.244,-0.5C0.27,-0.5 0.295,-0.498 0.32,-0.494C0.345,-0.49 0.37,-0.484 0.395,-0.475Z" style="fill:#444;fill-rule:nonzero;"/>
        </g>
    </g>
</svg>
